<svg id="Layer_1" data-name="Layer 1" xmlns="http://www.w3.org/2000/svg" viewBox="0 0 653.97 250.92"><defs><style>.cls-1,.cls-2{fill:#fff;}.cls-2{font-size:150px;font-family:SignPainter-HouseScript, SignPainter;}.cls-3{letter-spacing:-0.01em;}.cls-4{letter-spacing:-0.03em;}</style></defs><title>Artboard 1</title><path class="cls-1" d="M74.93,35.05A73.81,73.81,0,0,0,1.21,108.78c0,29,12.16,58.43,35.17,85a186.34,186.34,0,0,0,34.93,31.52,6.61,6.61,0,0,0,7.23,0,186.39,186.39,0,0,0,34.93-31.52c23-26.54,35.17-55.93,35.17-85A73.81,73.81,0,0,0,74.93,35.05Zm0,176.58c-13.56-10.07-60.49-48.85-60.49-102.85a60.5,60.5,0,1,1,121,0C135.43,162.66,88.48,201.54,74.92,211.64Z"/><path class="cls-1" d="M77.58,73.41H62.35A6.61,6.61,0,0,0,55.74,80v60.92a6.61,6.61,0,1,0,13.22,0V117.09h8.62a21.84,21.84,0,0,0,0-43.68Zm0,30.46H69V86.63h8.62a8.62,8.62,0,1,1,0,17.24Z"/><text class="cls-2" transform="translate(181.78 169.24)"><tspan class="cls-3">P</tspan><tspan x="62.25" y="0">erk</tspan><tspan class="cls-4" x="214.05" y="0">L</tspan><tspan x="262.5" y="0">ocal</tspan></text></svg>