<?xml version="1.0" encoding="iso-8859-1"?>
<!-- Generator: Adobe Illustrator 18.0.0, SVG Export Plug-In . SVG Version: 6.00 Build 0)  -->
<!DOCTYPE svg PUBLIC "-//W3C//DTD SVG 1.1//EN" "http://www.w3.org/Graphics/SVG/1.1/DTD/svg11.dtd">
<svg xmlns="http://www.w3.org/2000/svg" xmlns:xlink="http://www.w3.org/1999/xlink" version="1.1" id="Capa_1" x="0px" y="0px" viewBox="0 0 217.11 217.11" style="enable-background:new 0 0 217.11 217.11;" xml:space="preserve" width="512px" height="512px">
<g>
	<path d="M108.553,0C62.421,0,24.891,37.537,24.891,83.676c0,32.966,13.802,66.313,39.914,96.436   c19.503,22.498,38.831,35.245,39.645,35.776c1.246,0.815,2.675,1.222,4.103,1.222c1.429,0,2.858-0.407,4.104-1.222   c0.813-0.532,20.143-13.278,39.646-35.776c26.113-30.123,39.916-63.47,39.916-96.436C192.219,37.537,154.687,0,108.553,0z    M108.546,200.406c-15.386-11.431-68.655-55.445-68.655-116.73C39.891,45.808,70.693,15,108.553,15   c37.862,0,68.666,30.808,68.666,68.676C177.219,144.818,123.926,188.948,108.546,200.406z" fill="#FFFFFF"/>
	<path d="M111.555,43.536H94.27c-4.143,0-7.5,3.358-7.5,7.5v69.142c0,4.142,3.357,7.5,7.5,7.5c4.143,0,7.5-3.358,7.5-7.5V93.106   h9.785c13.667,0,24.785-11.119,24.785-24.785C136.34,54.655,125.222,43.536,111.555,43.536z M111.555,78.106h-9.785v-19.57h9.785   c5.396,0,9.785,4.39,9.785,9.785C121.34,73.717,116.951,78.106,111.555,78.106z" fill="#FFFFFF"/>
</g>
<g>
</g>
<g>
</g>
<g>
</g>
<g>
</g>
<g>
</g>
<g>
</g>
<g>
</g>
<g>
</g>
<g>
</g>
<g>
</g>
<g>
</g>
<g>
</g>
<g>
</g>
<g>
</g>
<g>
</g>
</svg>
